<svg xmlns="http://www.w3.org/2000/svg" width="2077.9094pt" height="300pt" viewBox="0 0 2077.9094 300"><path d="M441.52 164.788h33.64l-1.54 7.798H462.47v38.871h-9.536v-38.871H441.52v-7.798M482.68 164.788h9.342v18.133h13.427v-18.133h9.535v46.67h-9.535v-20.814h-13.427v20.813h-9.342v-46.67M527.806 164.788h26.59l-1.207 7.659h-15.98v10.814h13.365v7.659h-13.236v12.488h17.667v8.05h-27.2v-46.67M597.842 164.662h10.131l14.716 46.795h-10.077l-3.289-11.076h-13.702l-3.285 11.076h-9.808zm.065 27.931h9.131s-1.54-4.907-2.554-9.403c-.466-2.146-1.877-8.257-1.877-8.257s-1.344 5.506-2.218 8.991c-.87 3.367-1.476 5.585-2.482 8.67M658.748 167.485l-4.245 6.383c-2.343-1.758-4.836-2.629-7.447-2.629-3.15 0-6.234 1.54-7.918 4.023-1.816 2.694-2.622 6.584-2.622 12.03 0 6.376.531 9.933 1.95 12.487 1.876 3.421 4.964 5.24 8.99 5.24 2.555 0 4.772-.734 7.047-2.281.276-.204.61-.466.946-.752l4.309 5.918c-3.704 3.023-7.67 4.363-12.971 4.363-6.445 0-11.413-2.081-15.24-6.441-3.764-4.23-5.641-9.876-5.641-16.719 0-5.846 1.01-10.481 3.156-14.515 3.629-6.78 10.335-10.8 17.858-10.8 4.632 0 9.27 1.475 11.828 3.693M677.544 164.662h10.145l14.695 46.795h-10.06l-3.299-11.076h-13.698l-3.296 11.076h-9.79zm.065 27.931h9.134s-1.544-4.907-2.554-9.403c-.466-2.146-1.874-8.257-1.874-8.257s-1.346 5.506-2.217 8.991c-.877 3.367-1.476 5.585-2.49 8.67M709.247 165.06h9.39c2.696 0 6.247.136 8.127.272 3.966.327 7.322 1.874 10.206 4.632 4.306 4.234 6.383 10.202 6.383 18.6 0 6.376-1.615 11.62-4.696 15.912-2.83 3.84-6.989 6.25-11.359 6.726-1.744.13-3.952.255-6.71.255h-11.341zm9.529 7.387v31.359h5.04c6.182 0 8.995-4.493 8.995-14.372 0-5.431-.466-10.006-2.35-13.1-1.544-2.537-3.697-3.887-7.39-3.887h-4.295M753.423 164.788h26.595l-1.208 7.659h-15.987v10.814h13.365v7.659h-13.225v12.488h17.66v8.05h-27.2v-46.67M792.85 164.788H805l6.105 23.374c.877 3.353 1.214 4.696 1.612 7.118.476-2.422.945-4.571 1.687-7.322l6.305-23.17h12.294l4.162 46.67h-9.27l-1.745-24.908c-.2-2.949-.395-4.965-.395-7.462-.544 2.697-.88 4.034-1.683 6.856l-7.39 25.513h-8.26l-6.65-24.496c-.604-2.292-1.883-8.138-1.883-8.138 0 2.762-.123 5.38-.33 8.268l-1.612 24.366h-9.468l4.37-46.67M842.668 164.662h11.277l6.053 12.893c1.136 2.543 1.806 4.23 2.344 5.968a183.149 183.149 0 0 1 2.486-5.843l6.05-12.953h11.08l-14.913 27.53v19.2h-9.805v-19.2l-14.572-27.595M930.226 164.186c12.433 0 20.078 9.08 20.078 23.71 0 10.543-3.693 18.396-10.403 22.154-2.816 1.547-5.435 2.152-9.335 2.152-7.054 0-11.614-1.945-15.175-6.58-3.564-4.571-5.37-10.478-5.37-17.324 0-10.077 3.89-18.13 10.543-21.82 2.74-1.486 6.18-2.292 9.662-2.292zm-.13 7.257c-3.159 0-5.978 1.602-7.25 4.095-1.605 3.013-2.35 7.118-2.35 12.76 0 8.056 1.415 13.032 4.156 15.11 1.49 1.068 3.363 1.612 5.574 1.612 6.512 0 9.267-4.966 9.267-16.858 0-4.768-.395-8.193-1.208-10.798-.74-2.36-3.22-5.92-8.189-5.92M960.455 164.927h25.323l-1.064 7.588h-14.862v10.675h11.896v7.655h-11.896v20.612h-9.397v-46.53M1019.497 164.788h9.598v21.296l13.293-21.296h11.556l-14.912 21.633 16.596 25.036h-12.366l-14.168-24.366v24.366h-9.597v-46.67M1078.661 164.186c12.42 0 20.069 9.08 20.069 23.71 0 10.543-3.683 18.396-10.393 22.154-2.823 1.547-5.445 2.152-9.339 2.152-7.053 0-11.617-1.945-15.174-6.58-3.564-4.571-5.374-10.478-5.374-17.324 0-10.077 3.891-18.13 10.54-21.82 2.754-1.486 6.175-2.292 9.671-2.292zm-.129 7.257c-3.16 0-5.985 1.602-7.257 4.095-1.616 3.013-2.35 7.118-2.35 12.76 0 8.056 1.411 13.032 4.16 15.11 1.478 1.068 3.356 1.612 5.576 1.612 6.516 0 9.271-4.966 9.271-16.858 0-4.768-.405-8.193-1.21-10.798-.742-2.36-3.221-5.92-8.19-5.92M1108.415 164.727l17.385.06c8.264 0 13.699 5.517 13.699 13.713 0 6.979-4.632 12.746-10.403 12.886.932.741 1.347 1.146 1.945 1.952 2.683 3.353 11.21 18.12 11.21 18.12h-11.077a254.801 254.801 0 0 1-4.363-7.652c-4.632-8.39-6.112-10.597-7.724-11.424-.472-.19-.738-.326-1.469-.387v19.462h-9.203zm9.26 7.587-.057 12.62h3.146c4.03 0 5.781-.397 7.056-1.54 1.136-1.075 1.813-2.755 1.813-4.704 0-2.877-1.143-4.822-3.36-5.71-1.068-.394-3.027-.666-5.305-.666h-3.292M1150.514 164.788h26.588l-1.197 7.659h-15.99v10.814h13.375v7.659h-13.24v12.488h17.664v8.05h-27.2v-46.67M1197.32 164.662h10.141l14.712 46.795h-10.083l-3.292-11.076h-13.695l-3.29 11.076h-9.81zm.065 27.931h9.141s-1.554-4.907-2.564-9.403c-.466-2.146-1.874-8.257-1.874-8.257s-1.336 5.506-2.217 8.991c-.874 3.367-1.48 5.585-2.486 8.67M1229.216 164.788h10.414l8.927 18.674c2.35 4.975 4.166 9.876 5.1 13.23-.322-3.63-.672-9.601-.737-12.836l-.197-19.068h8.93v46.67h-9.804l-7.996-17.855c-2.547-5.846-5.434-12.413-6.312-15.317.347 3.836.415 9.332.473 13.229l.269 19.942h-9.067v-46.67M1330.48 168.08l-4.429 6.713c-4.23-2.544-7.386-3.554-10.879-3.554-3.826 0-6.52 2.218-6.52 5.367 0 2.418 1.283 3.632 5.167 4.703l5.648 1.548c7.662 2.077 11.822 6.981 11.822 13.905 0 9.468-7.659 15.706-19.273 15.706-5.305 0-11.216-1.541-15.916-4.224l3.493-7.322c4.363 2.278 8.125 3.761 12.828 3.761 5.373 0 8.193-2.214 8.193-6.383 0-3.02-1.95-4.962-6.108-6.044l-5.173-1.41c-4.635-1.273-7.523-3.089-9.206-5.912-1.272-2.077-1.945-4.495-1.945-7.114 0-8.533 6.849-14.433 16.722-14.433 5.71 0 11.488 1.741 15.575 4.693M1337.594 164.788h33.651l-1.547 7.798h-11.148v38.871h-9.53v-38.871h-11.426v-7.798M1377.69 164.788h9.597v30.692c0 3.49.14 4.299.81 5.57 1.074 2.092 3.294 3.235 6.379 3.235 4.091 0 6.72-2.013 7.118-5.441.14-1.01.14-1.687.14-4.166v-29.89h9.535v31.437c0 4.431-.07 5.302-.734 7.309-1.218 3.693-5.778 8.804-15.865 8.804-7.111 0-12.284-2.152-14.967-6.247-1.544-2.421-2.014-4.292-2.014-8.795v-32.508M1422.754 165.06h9.393c2.683 0 6.25.136 8.131.272 3.956.327 7.312 1.874 10.21 4.632 4.288 4.234 6.37 10.202 6.37 18.6 0 6.376-1.61 11.62-4.7 15.912-2.81 3.84-6.986 6.25-11.342 6.726a88.95 88.95 0 0 1-6.713.255h-11.35zm9.533 7.387v31.359h5.03c6.175 0 8.998-4.493 8.998-14.372 0-5.431-.47-10.006-2.353-13.1-1.541-2.537-3.684-3.887-7.39-3.887h-4.286M1467.131 164.788h9.812v46.67h-9.812v-46.67M1489.502 164.788h26.584l-1.21 7.659h-15.978v10.814h13.366v7.659h-13.23v12.488h17.661v8.05h-27.193v-46.67M1556.985 168.08l-4.435 6.713c-4.224-2.544-7.383-3.554-10.872-3.554-3.826 0-6.516 2.218-6.516 5.367 0 2.418 1.275 3.632 5.169 4.703l5.645 1.548c7.652 2.077 11.818 6.981 11.818 13.905 0 9.468-7.655 15.706-19.28 15.706-5.304 0-11.212-1.541-15.905-4.224l3.486-7.322c4.363 2.278 8.135 3.761 12.825 3.761 5.37 0 8.199-2.214 8.199-6.383 0-3.02-1.952-4.962-6.111-6.044l-5.177-1.41c-4.635-1.273-7.519-3.089-9.199-5.912-1.278-2.077-1.952-4.495-1.952-7.114 0-8.533 6.856-14.433 16.725-14.433 5.714 0 11.485 1.741 15.58 4.693" style="fill:#5b5c5e;fill-opacity:1;fill-rule:nonzero;stroke:none;stroke-width:.340083" transform="scale(1.33333)"/><path d="M899.561-598.375c-.049-.2-.908-3.516-2.865-4.952-.35-.309-2.152-1.847-3.246-1.859-.23-.239-.824-.517-2.926-.466l-.035.003c-.832.121-5.022.766-5.775 1.641-.053.032-2.559 1.991-3.426 3.696-.02.022-1.162 1.638-1.162 4.504 0 .218.006.442.02.673.027.2.546 3.985 2.083 5.116.113.17 1.352 1.924 3.87 2.894.24.248 1.06.891 3.322 1.01.164-.016 2.884-.359 4.838-1.258.111-.054 2.785-1.304 4.13-3.893.133-.167 1.295-1.703 1.295-5.1 0-.608-.039-1.279-.123-2.009zm-5.494 3.16c-.49 1.618-2.144 2.825-2.164 2.836-1.916 1-3.91.472-3.926.466-1.683-.969-2.19-2.799-2.195-2.817a3.04 3.04 0 0 1-.215-1.172c0-.932.326-1.927.783-2.549.055-.059 1.508-1.533 1.508-1.533.418-.288 1.756-.455 2.233-.49l.074-.005.062-.04c.334-.213 1.785.554 2.88 1.378.866.873.966 2.737.966 3.573 0 .186-.004.293-.006.353M942.413-598.375c-.047-.2-.906-3.516-2.862-4.952-.349-.309-2.15-1.847-3.247-1.859-.23-.239-.823-.517-2.928-.466l-.03.003c-.836.121-5.025.766-5.777 1.641-.055.032-2.559 1.991-3.426 3.696-.023.022-1.164 1.638-1.164 4.504 0 .218.004.442.022.673.025.2.545 3.985 2.084 5.116.113.17 1.353 1.924 3.87 2.894.237.248 1.062.891 3.32 1.01.166-.016 2.886-.359 4.84-1.258.112-.054 2.785-1.304 4.13-3.893.135-.167 1.295-1.703 1.295-5.1 0-.608-.039-1.279-.127-2.009zm-5.49 3.16c-.493 1.618-2.147 2.825-2.164 2.836-1.92 1-3.913.472-3.932.466-1.677-.969-2.185-2.799-2.192-2.817a3.04 3.04 0 0 1-.212-1.172c0-.932.326-1.927.78-2.549.056-.059 1.511-1.533 1.511-1.533.42-.288 1.753-.455 2.232-.49l.072-.005.065-.04c.334-.213 1.787.554 2.881 1.378.863.873.965 2.737.965 3.573 0 .186-.004.293-.006.353M732.658-599.455c.078.531.052.996-.076 1.387-.126.396-.298.708-.514.943a2.168 2.168 0 0 1-.69.52c-.24.11-.45.162-.63.162-.048 0-.189-.006-.42-.028-.228-.022-.52-.037-.877-.059-.357-.019-.752-.037-1.184-.056a26.805 26.805 0 0 0-1.298-.033c-.434.033-.84.04-1.223.025a22.63 22.63 0 0 0-.994-.025 7.36 7.36 0 0 1-.954-.059h-2.435l-3.73.06h-1.523l-1.447.118-2.397.094-.572-.328-1.788-4.41.38-.658 3.798.21c.328.03.614.051.854.063.238.015.512.021.816.021.43 0 .886-.006 1.367-.014.481-.007.861-.02 1.14-.042l-.229-4.594.534-.662 4.716 1.507.42.567.135 3.063 2.101.058H730.253c.152.033.355.055.611.071.253.016.503.094.744.234.242.146.46.353.65.636.192.286.324.693.4 1.23M744.194-572.444c.051.286.07.642.056 1.067-.007.224-.183.954-.482 1.414-.274.426-.668.588-.778.69-.23.202-31.398.23-31.398.23l-.608-.95-.076-1.702-.267-9.108.648-.472 4.3 2.123.38.564.191 4.242c.23.041.572.071 1.03.087.46.021.967.034 1.53.034.431.03.876.036 1.335.022.46-.015.893-.022 1.3-.022H732.2l5.042-.12 4.813-.143c.358 0 .668.081.935.24.27.156.504.347.708.568.127.188.228.388.304.596.076.204.141.42.192.64M957.4-573.16c.048.283.066.641.054 1.067-.008.226-.183.953-.487 1.414-.27.425-.662.587-.773.687-.23.201-31.396.23-31.396.23l-.61-.947-.076-1.705-.267-9.103.648-.47 4.3 2.12.378.562.193 4.243c.228.04.573.073 1.03.09.458.018.968.025 1.53.025.432.036.877.041 1.335.028.457-.019.892-.028 1.3-.028H945.404l5.041-.115 4.811-.14c.36 0 .668.08.935.234.27.162.504.351.71.571.126.19.228.39.304.596.076.208.143.42.194.641M729.07-588.893c-.067-1.026-.456-2.082-1.164-3.18l-.204-.434c-.11-.227-.322-.51-.634-.842-.312-.334-.735-.692-1.267-1.085-.532-.385-1.233-.784-2.103-1.189-.817-.056-1.484-.099-2.002-.126a23.596 23.596 0 0 0-1.228-.046c-.326 0-.57.027-.732.086l-2.127.303c-.3.145-.6.306-.899.476a13.9 13.9 0 0 0-1.796 1.166c-.41.464-.766.971-1.065 1.517-.273.491-.53 1.054-.775 1.687a6.378 6.378 0 0 0-.41 2.077 10.03 10.03 0 0 0-.04 1.56c.027.428.097.88.204 1.34.108.46.298.866.572 1.21.164.405.37.793.614 1.17.218.315.49.657.816 1.015.33.362.722.671 1.185.933.682.314 1.377.592 2.085.818a9.54 9.54 0 0 0 1.838.453c.654.105 1.227.08 1.715-.06.165 0 .466-.016.901-.047.436-.028.947-.149 1.532-.366.585-.213 1.191-.547 1.82-.992.624-.45 1.197-1.092 1.715-1.926.543-.866.953-1.776 1.225-2.73.218-.837.291-1.766.224-2.788zm-5.15.954a5.026 5.026 0 0 1-.478 1.425c-.389.634-.82 1.064-1.284 1.28-.478.226-.915.353-1.299.38a2.99 2.99 0 0 1-1.367-.248c-.729-.308-1.215-.7-1.443-1.167-.234-.485-.353-.954-.353-1.39 0-.498.12-1.034.355-1.592.083-.283.23-.534.444-.757.001-.003.66-.617.66-.617-.002.003.831-.504.831-.504.564-.07 1.083-.09 1.5-.05.402.04.71.115.913.22.256.111.444.245.57.4.453.425.735.87.848 1.332.083.33.127.64.127.927 0 .124-.009.245-.025.361M813.917-590.347c-.069-1.049-.467-2.132-1.189-3.25a86.66 86.66 0 0 0-.21-.444c-.11-.232-.327-.52-.647-.859a9.622 9.622 0 0 0-1.293-1.105c-.545-.399-1.26-.805-2.153-1.217-.832-.057-1.517-.103-2.045-.132a23.47 23.47 0 0 0-1.253-.046c-.334 0-.585.03-.749.09l-2.17.306c-.308.151-.615.313-.92.49a12.436 12.436 0 0 0-1.837 1.194 8.181 8.181 0 0 0-1.086 1.546c-.28.501-.543 1.075-.793 1.724a6.426 6.426 0 0 0-.418 2.12c-.057.534-.07 1.065-.043 1.594.03.443.098.9.21 1.37.11.471.304.884.585 1.238.167.412.375.812.627 1.194.222.326.5.671.833 1.04.337.366.74.681 1.212.951.695.323 1.406.604 2.13.836.583.207 1.208.365 1.878.465.667.105 1.253.081 1.753-.068.168 0 .473-.013.92-.043.444-.027.965-.156 1.565-.377a7.806 7.806 0 0 0 1.857-1.016c.641-.455 1.225-1.11 1.753-1.965.558-.884.975-1.81 1.254-2.786.223-.854.297-1.802.23-2.85zm-5.26.974c-.08.483-.248.971-.488 1.46-.4.644-.843 1.087-1.314 1.31-.482.226-.93.358-1.33.386a3.069 3.069 0 0 1-1.397-.254c-.746-.312-1.242-.714-1.476-1.195-.24-.496-.36-.976-.36-1.423 0-.507.12-1.054.366-1.625.08-.29.231-.544.453-.778l.672-.628.851-.51c.575-.077 1.106-.099 1.535-.059.411.043.725.122.93.23.265.113.457.248.584.404.465.436.753.891.871 1.366.084.334.124.651.124.947 0 .128-.006.252-.022.37M747.717-595.39a.94.94 0 0 1 .038.306c0 .143-.065.467-.192.75a.926.926 0 0 0-.096.375.935.935 0 0 1-.132.422 3.487 3.487 0 0 0-.364.423 2.158 2.158 0 0 1-.439.423c-.05.032-.21.086-.477.166-.267.076-.452.117-.553.117h-2.941l-.049 5.306v3.581c0 .471-.018.914-.055 1.32-.039.41-.16.785-.364 1.131-.304.531-.696.863-1.177.99a.504.504 0 0 1-.419.164 5.845 5.845 0 0 0-.532-.023c-.28 0-1.214-.069-1.467-.212a1.962 1.962 0 0 1-.57-.447 1.28 1.28 0 0 1-.227-.496 6.297 6.297 0 0 1-.116-.54 4.687 4.687 0 0 1-.037-.612l-.048-.758V-593.22l-.047-6.496-.072-5.7-.072-1.223.455-.283 4.625 2.071.113.61-.038 3.771.048 2.467h2.38l.762.092c.178.033.356.096.535.19.155.063.306.14.457.233.155.097.293.205.421.331.205.251.35.587.44 1.011.09.425.16.6.21.757M789.95-589.682c.027.278.04.55.04.81 0 .267-.028.54-.08.817-.084.28-.232.541-.447.79l-.285.323-1.219.561h-11.126c-.054 0-2.963.078-3.124.045l-.042.466c0 .094-.007 1.148-.02 1.595-.015.447-.129 1.018-.317 1.266-.136.156-.284.425-.447.517l-.627.34-1.074.271-1.288.07a2.88 2.88 0 0 1-.528-.045c-.354-.062-.598-.14-.733-.235a1.62 1.62 0 0 1-.698-.58c-.246-.38-.318-1.297-.318-1.396l-.047-.392-.036-1.738v-.184h-8.241c-.244.037-5.279.058-5.279.058l-1.137-1.915-.77-2.662.647-.46 7.962-.032 9.501-.049s18.377-.118 18.677.035c.241.16.466.367.668.63.205.264.334.628.388 1.094M875.376-591.255c.027.237.04.468.04.692 0 .224-.027.453-.083.69a1.803 1.803 0 0 1-.446.676l-.283.275-1.219.474s-14.089.067-14.253.041l-.04.395c0 .078-.007.596-.023.978-.012.38-.11.851-.302 1.058-.135.133-.235.303-.309.324l-.254.224-.7.291-.716.112-1.21.073c-.19 0-.419-.045-.583-.073-.352-.053-.563-.147-.695-.228-.299-.106-.649-.364-.81-.526-.163-.156-.273-.299-.327-.43-.082-.159-.123-.488-.123-.647v-.358l-.08-1.075v-.159h-8.243c-.244.035-5.277.051-5.277.051l-1.137-1.627-.773-2.265.49-.599 17.622.138s18.378-.1 18.68.032c.241.13.464.31.667.533.201.224.332.536.387.93M817.163-600.43c.053.31.045.525-.018.646a3.084 3.084 0 0 0-.21.554c-.106.278-.225.494-.368.645a.976.976 0 0 1-.44.3 2.144 2.144 0 0 1-.46.09 3.152 3.152 0 0 1-.385.025h-1.037a19.76 19.76 0 0 0-1.63-.025c-.602.02-1.21.025-1.824.025-.36 0-.694.007-.999.03-.308.018-.577.026-.806.026h-.73l-2.569-.089-3.642.09-1.575.056-1.765.057h-1.996l-.538-.092-2.075-4.346.538-.638 2.686.18h1.615l2.15.057h1.652v-.296l-.27-4.006.384-.865 4.83 1.366.383.822.191 2.865 1.842-.1 3.19.044h1.458c.203 0 .422.016.652.046.205.063.404.13.598.208.19.075.387.237.592.482.154.188.277.453.365.81.09.351.16.695.211 1.032M827.792-569.586c-.49.64-1.016.96-1.576.96l-1.536-.046-1-.957-.496-1.093-.117-2.823v-1.457l-22.806-.058-3.802.046-.577-.27-.538-.78-.46-1.239-.729-1.738.461-.913 4.494.215 6.372-.046 22.114-.113.73.687v7.942c0 .668-.179 1.234-.534 1.683M786.925-570.049c-.486.64-1.01.96-1.574.96l-1.535-.044-1-.959-.498-1.093-.116-2.823v-1.456l-11.594-.048-15.013.032-.576-.272-.539-.778-.458-1.237-.73-1.737.46-.914 4.492.213 23.768-.156h4.721l.731.687v7.942c0 .666-.18 1.228-.539 1.683M786.925-594.612c-.486.644-1.01.967-1.574.967l-1.535-.046-1-.964-.498-1.107-.116-2.848v-1.473l-26.607-.01-1.115-1.065-.458-1.247-.73-1.757.46-.924 4.492.216 6.374-.043 6.757-.04 4.955-.076h10.403l.731.692v8.025c0 .674-.18 1.242-.539 1.7M832.323-595.124a.781.781 0 0 1 .041.294c0 .135-.066.342-.19.611a.839.839 0 0 0-.099.362.876.876 0 0 1-.133.406 3.166 3.166 0 0 0-.365.408c-.09.121-.236.255-.442.412-.052.026-.212.08-.48.152-.27.08-.455.114-.555.114H827.142l-.048 3.688v3.464c0 .456-.02.881-.058 1.275-.039.393-.16.76-.363 1.09-.305.518-.702.835-1.186.96a.508.508 0 0 1-.42.156 6.27 6.27 0 0 0-.535-.022c-.279 0-1.023-.067-1.277-.204-.256-.135-.448-.28-.575-.432a1.217 1.217 0 0 1-.23-.479 5.972 5.972 0 0 1-.113-.523 4.225 4.225 0 0 1-.039-.59l-.047-.732V-594.59l-.049-6.277-.07-5.512-.075-1.183.46-.274 4.45 2.004.118.593-.04 3.642.05 3.601h2.388l.77.114c.177.03.357.091.535.183.156.062.308.134.463.226.152.092.293.196.422.315.203.243.351.57.44.973.091.41.16.91.21 1.061M918.081-595.566c-.002.127-.306 1.765-.435 2.013-.055.083-.604.547-.81.681-.048.027-.21.076-.48.145-.269.066-1.287.096-1.287.096l-1.382-.015-.846-.005-.073 2.848-.085 1.643c-.003.418-.03.342-.073.71-.04.362-.412.766-.62 1.071-.31.474-.64.765-1.124.87-.133.112-1.344.216-1.599.084-.253-.124-.505-.202-.632-.34-.097-.113-.726-.849-.748-.989a3.22 3.22 0 0 1-.039-.547l-.013-.433.095-2.69.037-4.869-.005-5.793-.034-5.086-.066-1.09.461-.25 4.44 1.88.11.55-.064 3.358.02 3.53 1.431.01.96.008.767.108c.178.03.358.088.538.175.154.054.306.123.458.21.15.087.768.82.856 1.195.087.38.244.796.242.922M873.471-601.823a3.295 3.295 0 0 1-.269.352 7.538 7.538 0 0 1-.324.264c-.118.09-.248.162-.403.221a2.284 2.284 0 0 1-.71.064 14.416 14.416 0 0 0-.479-.023h-1.455c-.383 0-.803-.019-1.264-.055l-2.258-.026-2.988-.19.346.13 2.105.917 5.092 2.314c.18 0 .348.097.5.282.153.194.28.405.381.64.105.23.185.462.25.697.064.231.084.393.056.48-.05.38-.152.692-.306.94a2.316 2.316 0 0 1-1.012.916c-.168.075-.275.11-.326.11-.156.056-.354.07-.596.046a6.377 6.377 0 0 1-.709-.132 6.622 6.622 0 0 1-.802-.222l-2.028-.96-2.758-1.308-2.183-1.136-2.797-1.355-2.834-1.53-2.183 1.223-2.3 1.268-2.027 1.003-4.023 1.834-1.875.921-1.264.302-1.072-.302a1.593 1.593 0 0 1-.52-.479 4.073 4.073 0 0 1-.363-.658l-.305-.786.19-1.137 1.035-.61 1.303-.702 1.916-.783 1.644-.787 1.916-.744.92-.393-4.29.11-3.755.051-.61-.307-.497-.88-.5-1.194-.573-1.544.534-.44 2.72.055H855.165s17.533-.003 17.674.094c.14.103.261.215.363.331.101.15.205.308.307.486l.267 1.36-.305 1.272M908.75-581.019c-.743-1.844-2.263-3.31-2.408-3.432-.132-.112-.939-.902-2.156-1.258-1.294-.379-2.919-.549-3.033-.549 0-.022-1.162-.027-2.15.092-.707.084-1.422.39-1.827.457-.224.08-1.659.64-2.74 1.493-1.052.832-1.752 1.956-1.869 2.144a4.489 4.489 0 0 0-.517 1.377c-.084.25-.168.563-.249.935a20.97 20.97 0 0 0-.167 1.282c-.055.515-.024 1.101-.05 1.88.026.375.092.997.204 1.432a9.071 9.071 0 0 0 1.26 2.774c.162.25.344.498.541.75.168.23.664 1.052 1.763 1.656 1.37.756 3.494 1.29 4.975 1.22 1.32-.064 3.137-.297 4.508-1.038 1.443-.784 2.416-2.084 2.65-2.309.46-.433.754-.856.895-1.257.248-.623.46-1.243.623-1.867.14-.528.25-1.085.332-1.68.041-.284.11-2.382-.586-4.102zm-5.179 5.714c-.605.892-1.807 1.452-1.857 1.477-.364.174-1.534.285-1.82.207l-.083-.027c-.312-.084-1.26-.345-1.818-.746-.54-.39-1.004-1.11-1.065-1.354 0-.004-.035-.125-.035-.125-.107-.377-.365-1.258-.259-2.14.048-.392.332-1.658.994-2.326.666-.672 1.625-.884 1.941-.95l.09-.023.646-.097.245-.022c.121-.013 1.5.101 2.363.882.5.45 1.412 1.643 1.314 2.936-.06.752-.185 1.62-.656 2.308M863.341-580.09c-.694-1.685-2.1-3.024-2.233-3.135-.123-.102-.869-.824-1.996-1.15-1.2-.347-2.705-.5-2.809-.5 0-.022-1.076-.025-1.994.082-.656.08-1.318.356-1.69.418-.208.073-1.538.584-2.538 1.363-.977.76-1.625 1.783-1.733 1.958a4.015 4.015 0 0 0-.482 1.26 9.765 9.765 0 0 0-.229.85c-.05.313-.103.703-.156 1.17-.049.468-.02 1.007-.047 1.718.026.342.086.908.192 1.307.101.34.175.587.355 1.045.182.452.451.948.811 1.49.152.225.32.455.502.678.156.216.617.962 1.632 1.517 1.27.69 3.237 1.174 4.61 1.113 1.226-.057 2.904-.27 4.176-.949 1.338-.713 2.238-1.899 2.457-2.106.422-.397.7-.779.828-1.148.23-.568.424-1.134.574-1.703.131-.485.234-.996.311-1.532.037-.26.101-2.179-.54-3.747zm-4.204 3.102c-.033.418-.109 1.384-.6 2.101-.564.816-1.673 1.325-1.72 1.347-.336.16-1.42.261-1.68.188l-.08-.023c-.289-.076-1.168-.316-1.677-.68-.498-.355-.926-1.01-.985-1.23l-.033-.119c-.1-.342-.332-1.145-.234-1.945.041-.353.297-1.503.912-2.117.611-.607 1.496-.8 1.787-.863l.094-.022.588-.086.234-.018c.11-.014 1.385.083 2.185.8.438.388 1.217 1.387 1.217 2.49 0 .061-.002.118-.008.177M957.026-584.168l-.166 1.49-.564.846-.957.542-1.314.191-1.235-.703-.352-1.445-.015-5.134-1.486-.008-1.037.038-1.782-.033-.707-.239-.514-1.694-.585-2.689.562-.547 3.73.07 1.796-.044-.022-3.809-.6-.053-2.11.038-1.595.054-.636-.354-.934-4.278.478-.592 2.074.124 2.39.061 1.1-.096.003-1.092-.027-3.103.597-.444 3.778 1.665.243.794-.013 2.883-.026 5.611v7.253l-.074 4.697M999.717-579.552l-.868.837s-2.25.006-2.633.021c-.385.014-10.049-.023-10.049-.023l-1.086.056v6.702l-.564 1.102-.75.62-.975.35c-.133 0-.922.09-1.053.09-.133 0-.887-.346-1.015-.405-.09-.035-.424-.16-.717-.447-.239-.232-.44-.609-.477-.773-.078-.373-.07-3.37-.07-3.616v-.692c0-.304-.049-2.597-.049-2.813l-1.268-.048-13.49-.068-.4-.32-1.258-4.25.39-.58 35.895.178.908 1.131.204 1.88-.675 1.068M998.122-594.103l-.088 6.096-.476 1.358-1.046.868-1.474.258-1.658-.94-.362-2.136v-4.822l.092-6.772-2.714-.025-3.698.016-3.04.084-7.312-.079-6.078-.018-4.93.075-.574-.458-1.56-3.986.36-.445 33.382-.089 1.063.895.005 2.486.108 7.634M1038.81-572.444c.05.286.068.64.058 1.067-.01.224-.185.951-.484 1.414-.276.426-.668.588-.774.688-.23.204-31.64.232-31.64.232l-.608-.95-.078-1.702-.267-9.108.648-.472 4.301 2.123.38.564.19 4.24c.231.04.574.073 1.031.09.46.02.967.033 1.53.033.431.03.874.036 1.336.02.456-.013.89-.02 1.296-.02h10.846l5.043-.124 5.053-.139c.357 0 .668.081.933.24.27.156.504.347.71.568.126.188.228.388.304.596.074.204.141.42.191.64" style="fill:#5b5c5e;fill-opacity:1;fill-rule:nonzero;stroke:none;stroke-width:.1" transform="translate(-2625.237 2754.732) scale(4.52717)"/><path d="m1028.305-583.893-.648.962-1.617.19h-1.898l-3.077.095-1.933-.056v1.698l-.06 2.001-.829.921-1.35.458c-.136-.03-1.133-.073-1.24-.137a1.333 1.333 0 0 0-.322-.135.895.895 0 0 1-.28-.135c-.082-.07-.27-.153-.427-.377a2.195 2.195 0 0 1-.24-.585c-.043-.182-.086-.395-.143-.64a7.704 7.704 0 0 1-.12-.865l-.052-1.919v-.344l-3.182.045-2.458-.045-2.863-.046-.524-.415-.844-1.568-.848-2.257.487-.738 3.467.245 3.51.097 2.462.048 5.363-.105 3.438-.103 2.47.044 2.507.048.847.642.61 1.556-.206 1.42M1024.76-599.579a12.05 12.05 0 0 0-.69-1.738 12.018 12.018 0 0 0-.81-1.504 5.233 5.233 0 0 0-1.09-1.279 8.354 8.354 0 0 0-1.578-1.145 12.724 12.724 0 0 0-1.84-.773c-.716-.243-1.546-.353-2.488-.32-.166 0-.493.037-.992.11-.497.08-1.015.19-1.556.323-.54.14-1.059.304-1.559.501-.5.2-.828.39-.992.574-.43.364-.848.744-1.25 1.14-.352.337-.699.708-1.033 1.12a7.875 7.875 0 0 0-.828 1.207c-.245.337-.45.75-.608 1.237-.134.425-.255.937-.363 1.53-.108.596-.135 1.271-.08 2.032.08.67.201 1.308.363 1.92.133.514.321 1.056.564 1.62.245.562.553 1.012.93 1.35.377.513.852.987 1.416 1.413.486.366 1.108.722 1.861 1.072.755.35 1.698.584 2.832.71.565.028 1.143 0 1.74-.093a17.163 17.163 0 0 0 1.616-.275 6.567 6.567 0 0 0 1.578-.547c.461-.274.93-.576 1.414-.916.381-.304.79-.674 1.234-1.115.448-.442.817-.97 1.116-1.575.295-.43.55-.947.77-1.555.155-.515.286-1.194.382-2.03.092-.839.074-1.836-.06-2.994zm-5.246 4.547-.668.848-.865.666a3.998 3.998 0 0 1-1.322.436l-1.207.065-.863-.105s-.239-.057-.356-.083a4.007 4.007 0 0 1-1.012-.79l-.632-.846-.434-.937c-.13-.267-.2-.585-.213-.962l.08-1.182.297-1.143c.121-.342.275-.617.46-.825l1.271-.936c-.025.013.517-.162.517-.162l.72-.157.653-.137c0-.002.335-.065.335-.065.32.025.66.108.997.24l.916.426c0 .002.87.624.87.624.271.278.478.637.605 1.055l.277 1.28c0 .004.035 1.44.04 1.472-.104.491-.259.903-.466 1.218M1038.397-581.376l-.162 1.511-.568.862-.973.552-1.336.202-1.258-.754-.392-1.37-.012-9.974-3.373-.03-.537-.326-.494-1.435-.819-2.746.54-.598 3.234-.032h1.496v-4.65l-.047-1.514v-4.338l.605-.506 3.852 1.665.244.81.04 3.376-.04 5.698.04 7.341-.04 6.256" style="fill:#5b5c5e;fill-opacity:1;fill-rule:nonzero;stroke:none;stroke-width:.1" transform="translate(-2625.237 2754.732) scale(4.52717)"/><path d="m-348.26-110.163-.001.008L-463.06 33.693h43.97l56.235-73.898-15.382 73.738h34.116l29.977-143.696h-34.115M-180.375 62.695c-.005-.002-.009-.002-.013-.002-28.082-6.166-49.878-20.188-62.375-39.067a69.197 69.197 0 0 1-10.692-26.148c-1.985-10.706-1.6-22.303 1.518-34.418 7.108-27.62 27.015-52.545 53.246-70.299a.268.268 0 0 0 .016-.01l.014-.006.003-.003c.098-.066.186-.143.267-.229.023-.022.042-.05.063-.076.053-.063.105-.132.15-.204.02-.035.037-.07.054-.106.039-.074.068-.151.092-.233.013-.035.025-.07.034-.105.027-.118.045-.239.045-.365 0-.867-.698-1.571-1.56-1.584l-.002-.003h-43.68c-13.5 12.518-24.546 26.872-32.119 42.357l8.836-42.357h-34.117l-29.976 143.697h34.115l10.223-49.001c.491 6.275 1.662 12.326 3.479 18.103 11.681 37.1 49.78 62.82 101.588 63.496.09.013.178.028.272.033.135.002.269-.005.4-.023.912-.135 1.617-.824 1.644-1.672.026-.851-.629-1.578-1.525-1.775" style="fill:#004655;fill-opacity:1;fill-rule:nonzero;stroke:none;stroke-width:.113161" transform="matrix(1.33333 0 0 1.33333 617.413 211.78)"/><path d="M-96.784-156.941a142.836 142.836 0 0 0-13.201-1.525 155.501 155.501 0 0 0-10.694-.369c-45.574 0-90.797 19.276-122.497 48.672h43.661l.002.003c.862.013 1.56.716 1.56 1.583 0 .127-.018.248-.045.366-.009.035-.021.07-.034.105a1.296 1.296 0 0 1-.091.233c-.017.035-.035.07-.055.105a1.84 1.84 0 0 1-.15.205c-.02.026-.04.053-.062.076-.082.086-.17.163-.267.228l-.003.003-.015.006a.268.268 0 0 0-.016.01c-26.23 17.755-46.138 42.68-53.246 70.3a93.57 93.57 0 0 0-.685 2.879c-.049.216-.094.434-.142.65-.191.89-.37 1.776-.532 2.657-.01.058-.022.113-.031.17a84.63 84.63 0 0 0-.886 6.157c.05-.189.115-.364.174-.515.018-.043.032-.087.05-.132.185-.388.47-.584.468-.588.492-.408 1.01-.451 1.462-.396.454.056 1.085.204 1.567 1.127.005.008.014.019.02.031.126.217 1.219 2.487 2.416 4.488 4.342 7.248 7.764 11.56 17.229 18.66 3.376 2.532 2.406 4.698 2.228 8.58a20.15 20.15 0 0 0-.003 1.64c-.409 8.68 5.325 17.614 16.8 24.153 8.383 5.338 19.06 8.435 31.323 8.435 6.332 0 12.648-.83 18.788-2.366 17.185-3.604 34.419-12.342 45.215-27.108.241-.327.463-.654.696-.983 9.712-12.479 12.645-24.021 13.28-32.51.379-3.897.276-7.664-.282-11.263-1.093-7.077-3.91-13.502-8.175-18.941l.012-.012-.02-.002a42.407 42.407 0 0 0-2.709-3.112c-2.785-2.91-6.03-5.471-9.686-7.62-4.844-3.355-10.33-6.517-16.276-9.726-.219-.117-.425-.234-.636-.353-13.46-7.514-17.742-17.933-18.754-26.19-.438-4.193-.175-8.673.89-13.327 5.407-23.611 29.265-42.752 53.285-42.752 1.593 0 4.265.084 6.28.248.091.008.612.034 1.23.063.023.003.038.009.06.012.085.01.168.01.25.002.54-.044.984-.424 1.039-.935.053-.5-.288-.957-.791-1.123" style="fill:#31bbcc;fill-opacity:1;fill-rule:nonzero;stroke:none;stroke-width:.113161" transform="matrix(1.33333 0 0 1.33333 617.413 211.78)"/></svg>